<?xml version="1.0" ?><svg fill="none" height="14" viewBox="0 0 14 14" width="14" xmlns="http://www.w3.org/2000/svg"><g clip-path="url(#clip0_2_681)"><path d="M6.02 0.087988C4.46329 0.339037 3.03234 1.09508 1.94769 2.23959C0.863034 3.3841 0.184881 4.85356 0.0177401 6.4215C-0.149401 7.98945 0.203747 9.56884 1.02276 10.9163C1.84177 12.2637 3.08119 13.3044 4.55 13.878C4.6493 13.9132 4.7563 13.9209 4.8596 13.9001C4.9629 13.8793 5.05861 13.8308 5.13653 13.7599C5.21445 13.689 5.27164 13.5982 5.30202 13.4973C5.33239 13.3964 5.33481 13.2891 5.309 13.187C5.13564 12.379 5.11461 11.5457 5.247 10.73C5.47576 9.36429 6.13119 8.10614 7.11928 7.13601C8.10737 6.16589 9.37733 5.53365 10.747 5.32999C11.5649 5.21269 12.3975 5.24932 13.202 5.43799C13.3023 5.463 13.4074 5.46089 13.5066 5.43188C13.6059 5.40287 13.6956 5.34801 13.7666 5.27291C13.8376 5.19781 13.8874 5.10518 13.9109 5.00451C13.9343 4.90383 13.9306 4.79874 13.9 4.69999C13.3238 3.13767 12.2232 1.82379 10.786 0.98266C9.34888 0.141533 7.66434 -0.174687 6.02 0.087988Z" fill="#444A58"/><path d="M13.815 7.79998C12.8353 7.37955 11.7368 7.3263 10.721 7.64998C9.99621 7.87904 9.33722 8.27923 8.79974 8.81671C8.26225 9.3542 7.86206 10.0132 7.633 10.738C7.30836 11.7557 7.36162 12.8564 7.783 13.838C7.80226 13.8799 7.83141 13.9165 7.86795 13.9447C7.90448 13.9728 7.94731 13.9917 7.99275 13.9997C8.03819 14.0077 8.08488 14.0045 8.12882 13.9904C8.17275 13.9764 8.21262 13.9518 8.245 13.919L13.9 8.26198C13.933 8.22943 13.9575 8.18932 13.9714 8.14514C13.9853 8.10095 13.9882 8.05404 13.9798 8.00848C13.9714 7.96292 13.952 7.9201 13.9233 7.88376C13.8946 7.84742 13.8574 7.81866 13.815 7.79998Z" fill="#444A58"/></g><defs><clipPath id="clip0_2_681"><rect fill="white" height="14" width="14"/></clipPath></defs></svg>